<?xml version="1.0" encoding="utf-8"?>
<!-- Generator: Adobe Illustrator 16.0.4, SVG Export Plug-In . SVG Version: 6.00 Build 0)  -->
<!DOCTYPE svg PUBLIC "-//W3C//DTD SVG 1.1//EN" "http://www.w3.org/Graphics/SVG/1.1/DTD/svg11.dtd">
<svg version="1.1" id="Layer_1" xmlns="http://www.w3.org/2000/svg" xmlns:xlink="http://www.w3.org/1999/xlink" x="0px" y="0px"
	 width="960px" height="560px" viewBox="0 0 960 560" enable-background="new 0 0 960 560" xml:space="preserve">
<g>
	<rect x="44.5" y="76.5" fill="none" stroke="#000000" stroke-miterlimit="10" width="78" height="247"/>
	<line fill="none" stroke="#000000" stroke-miterlimit="10" x1="44" y1="282.5" x2="122" y2="282.5"/>
	<line fill="none" stroke="#000000" stroke-miterlimit="10" x1="44" y1="240.5" x2="122" y2="240.5"/>
	<line fill="none" stroke="#000000" stroke-miterlimit="10" x1="44" y1="200.5" x2="122" y2="200.5"/>
	<line fill="none" stroke="#000000" stroke-miterlimit="10" x1="44" y1="159.5" x2="122" y2="159.5"/>
	<line fill="none" stroke="#000000" stroke-miterlimit="10" x1="44" y1="117.5" x2="122" y2="117.5"/>
	<path fill="none" stroke="#000000" stroke-miterlimit="10" d="M108.839,324.719"/>
	<path fill="none" stroke="#000000" stroke-miterlimit="10" d="M108.839,77.215"/>
	<path fill="none" stroke="#000000" stroke-miterlimit="10" d="M96.719,324.719"/>
	<path fill="none" stroke="#000000" stroke-miterlimit="10" d="M96.719,77.215"/>
	<path fill="none" stroke="#000000" stroke-miterlimit="10" d="M83.388,324.719"/>
	<path fill="none" stroke="#000000" stroke-miterlimit="10" d="M83.388,77.215"/>
	<path fill="none" stroke="#000000" stroke-miterlimit="10" d="M70.057,324.719"/>
	<path fill="none" stroke="#000000" stroke-miterlimit="10" d="M70.057,77.215"/>
	<path fill="none" stroke="#000000" stroke-miterlimit="10" d="M57.938,324.719"/>
	<path fill="none" stroke="#000000" stroke-miterlimit="10" d="M57.938,77.215"/>
</g>
<line fill="none" stroke="#000000" stroke-miterlimit="10" x1="83" y1="38.5" x2="787" y2="38.5"/>
<path fill="none" stroke="#000000" stroke-miterlimit="10" d="M82.5,518"/>
<path fill="none" stroke="#000000" stroke-miterlimit="10" d="M80.5,427"/>
<line fill="none" stroke="#000000" stroke-miterlimit="10" x1="80.5" y1="325" x2="80.5" y2="425"/>
<rect x="689.5" y="352.5" fill="none" stroke="#000000" stroke-miterlimit="10" width="199" height="106"/>
<rect x="533.5" y="183.5" fill="none" stroke="#000000" stroke-miterlimit="10" width="83" height="33"/>
<rect x="742.5" y="84.5" fill="none" stroke="#000000" stroke-miterlimit="10" width="88" height="33"/>
<rect x="311.5" y="77.5" fill="none" stroke="#000000" stroke-miterlimit="10" width="82" height="28"/>
<rect x="269.5" y="152.5" fill="none" stroke="#000000" stroke-miterlimit="10" width="155" height="90"/>
<rect x="313.5" y="276.5" fill="none" stroke="#000000" stroke-miterlimit="10" width="77" height="26"/>
<rect x="313.5" y="337.5" fill="none" stroke="#000000" stroke-miterlimit="10" width="77" height="26"/>
<polygon stroke="#000000" stroke-miterlimit="10" points="83.5,76.25 77.871,66.5 89.129,66.5 "/>
<line fill="none" stroke="#000000" stroke-miterlimit="10" x1="786.5" y1="351" x2="786.5" y2="118"/>
<line fill="none" stroke="#000000" stroke-miterlimit="10" x1="758.5" y1="353" x2="758.5" y2="198"/>
<line fill="none" stroke="#000000" stroke-miterlimit="10" x1="758" y1="198.5" x2="616" y2="198.5"/>
<line fill="none" stroke="#000000" stroke-miterlimit="10" x1="574.5" y1="184" x2="574.5" y2="38"/>
<line fill="none" stroke="#000000" stroke-miterlimit="10" x1="352.5" y1="38" x2="352" y2="77.5"/>
<line fill="none" stroke="#000000" stroke-miterlimit="10" x1="351.5" y1="106" x2="351.5" y2="153"/>
<line fill="none" stroke="#000000" stroke-miterlimit="10" x1="176.5" y1="434" x2="176.5" y2="198"/>
<line fill="none" stroke="#000000" stroke-miterlimit="10" x1="176" y1="198.5" x2="269" y2="198.5"/>
<line fill="none" stroke="#000000" stroke-miterlimit="10" x1="351.5" y1="243" x2="351.5" y2="277"/>
<path fill="none" stroke="#000000" stroke-miterlimit="10" d="M80,405.5"/>
<line fill="none" stroke="#000000" stroke-miterlimit="10" x1="689" y1="405.5" x2="100" y2="405.5"/>
<line fill="none" stroke="#000000" stroke-miterlimit="10" x1="719.485" y1="352.5" x2="719.019" y2="289.5"/>
<line fill="none" stroke="#000000" stroke-miterlimit="10" x1="719" y1="289.5" x2="390" y2="289.5"/>
<line fill="none" stroke="#000000" stroke-miterlimit="10" x1="351.5" y1="303" x2="351.5" y2="338"/>
<line fill="none" stroke="#000000" stroke-miterlimit="10" x1="787" y1="38.5" x2="786.5" y2="84.5"/>
<line fill="none" stroke="#000000" stroke-miterlimit="10" x1="83.5" y1="38" x2="83.5" y2="75"/>
<polygon stroke="#000000" stroke-miterlimit="10" points="93.088,501.5 89.169,509.331 85.251,501.5 "/>
<path fill="none" stroke="#000000" stroke-miterlimit="10" d="M359,440.5"/>
<polyline fill="none" stroke="#000000" stroke-miterlimit="10" points="110.432,425 100.216,442.5 79.784,442.5 69.568,425 "/>
<line fill="none" stroke="#000000" stroke-miterlimit="10" x1="70" y1="425.5" x2="110" y2="425.5"/>
<line fill="none" stroke="#000000" stroke-miterlimit="10" x1="99.5" y1="405" x2="99.5" y2="425"/>
<line fill="none" stroke="#000000" stroke-miterlimit="10" x1="105" y1="434.5" x2="177" y2="434.5"/>
<line fill="none" stroke="#000000" stroke-miterlimit="10" x1="89.5" y1="443" x2="89.5" y2="505"/>
<line fill="none" stroke="#000000" stroke-miterlimit="10" x1="351.5" y1="364" x2="351.5" y2="495"/>
<line fill="none" stroke="#000000" stroke-miterlimit="10" x1="725.5" y1="459" x2="725.5" y2="505"/>
<line fill="none" stroke="#000000" stroke-miterlimit="10" x1="742.5" y1="459" x2="742.5" y2="505"/>
<line fill="none" stroke="#000000" stroke-miterlimit="10" x1="758.5" y1="459" x2="758.5" y2="505"/>
<line fill="none" stroke="#000000" stroke-miterlimit="10" x1="846.5" y1="459" x2="846.5" y2="503"/>
<line fill="none" stroke="#000000" stroke-miterlimit="10" x1="742" y1="101.5" x2="692" y2="101.5"/>
<line fill="none" stroke="#000000" stroke-miterlimit="10" x1="691.5" y1="101" x2="691.5" y2="122"/>
<line fill="none" stroke="#000000" stroke-miterlimit="10" x1="691" y1="121.5" x2="393" y2="121.5"/>
<line fill="none" stroke="#000000" stroke-miterlimit="10" x1="392.5" y1="121" x2="392.5" y2="153"/>
<polygon stroke="#000000" stroke-miterlimit="10" points="721.531,465.5 725.665,458.34 729.799,465.5 "/>
<polygon stroke="#000000" stroke-miterlimit="10" points="738.531,465.5 742.665,458.34 746.799,465.5 "/>
<polygon stroke="#000000" stroke-miterlimit="10" points="754.531,466.5 758.665,459.34 762.799,466.5 "/>
<polygon stroke="#000000" stroke-miterlimit="10" points="850.799,497.5 846.665,504.66 842.531,497.5 "/>
<polygon stroke="#000000" stroke-miterlimit="10" points="782.531,125.5 786.665,118.34 790.799,125.5 "/>
<polygon stroke="#000000" stroke-miterlimit="10" points="396.799,145.5 392.665,152.66 388.531,145.5 "/>
<polygon stroke="#000000" stroke-miterlimit="10" points="355.799,145.5 351.665,152.66 347.531,145.5 "/>
<polygon stroke="#000000" stroke-miterlimit="10" points="355.799,69.5 351.665,76.66 347.531,69.5 "/>
<polygon stroke="#000000" stroke-miterlimit="10" points="109.5,437.213 105,434.614 109.5,432.017 "/>
<line fill="none" stroke="#000000" stroke-miterlimit="10" x1="574.5" y1="217" x2="574.5" y2="351"/>
<line fill="none" stroke="#000000" stroke-miterlimit="10" x1="390" y1="350.5" x2="574" y2="350.5"/>
<polygon stroke="#000000" stroke-miterlimit="10" points="356.088,493.5 352.169,501.331 348.251,493.5 "/>
<polygon stroke="#000000" stroke-miterlimit="10" points="398.5,354.213 391.34,350.078 398.5,345.945 "/>
<polygon stroke="#000000" stroke-miterlimit="10" points="398.5,293.213 391.34,289.078 398.5,284.945 "/>
<polygon stroke="#000000" stroke-miterlimit="10" points="623.5,202.212 616.34,198.079 623.5,193.945 "/>
<rect x="43.568" y="77.75" fill="none" width="78.432" height="39.75"/>
<text transform="matrix(1 0 0 1 72.2842 95.5)" font-family="'MyriadPro-Regular'" font-size="25">r1</text>
<rect x="44.057" y="119.25" fill="none" width="77.943" height="37.75"/>
<text transform="matrix(1 0 0 1 72.5283 137)" font-family="'MyriadPro-Regular'" font-size="25">r2</text>
<rect x="313.5" y="338" fill="none" width="77" height="25.5"/>
<text transform="matrix(1 0 0 1 338.4756 355.75)" font-family="'MyriadPro-Regular'" font-size="25">p4</text>
<rect x="313.5" y="276.5" fill="none" width="77" height="26"/>
<text transform="matrix(1 0 0 1 338.4756 294.25)" font-family="'MyriadPro-Regular'" font-size="25">p3</text>
<rect x="270.251" y="153" fill="none" width="154.249" height="89.5"/>
<text transform="matrix(1 0 0 1 331.5132 170.75)" font-family="'MyriadPro-Regular'" font-size="25">alu</text>
<rect x="44.057" y="159.5" fill="none" width="77.943" height="41"/>
<text transform="matrix(1 0 0 1 72.5283 177.25)" font-family="'MyriadPro-Regular'" font-size="25">r3</text>
<rect x="44" y="200.5" fill="none" width="78" height="40"/>
<text transform="matrix(1 0 0 1 72.5 218.25)" font-family="'MyriadPro-Regular'" font-size="25">r4</text>
<rect x="44" y="240.5" fill="none" width="78" height="42"/>
<text transform="matrix(1 0 0 1 72.5 258.25)" font-family="'MyriadPro-Regular'" font-size="25">r4</text>
<rect x="44" y="282.5" fill="none" width="78.5" height="41"/>
<text transform="matrix(1 0 0 1 72.75 300.25)" font-family="'MyriadPro-Regular'" font-size="25">r5</text>
<rect x="311.5" y="77.5" fill="none" width="82" height="28"/>
<text transform="matrix(1 0 0 1 338.9756 95.25)" font-family="'MyriadPro-Regular'" font-size="25">p1</text>
<rect x="533.5" y="183.5" fill="none" width="83" height="33"/>
<text transform="matrix(1 0 0 1 561.4756 201.25)" font-family="'MyriadPro-Regular'" font-size="25">p3</text>
<rect x="742.5" y="84.5" fill="none" width="88" height="33"/>
<text transform="matrix(1 0 0 1 772.9756 102.25)" font-family="'MyriadPro-Regular'" font-size="25">p2</text>
<rect x="689.5" y="352.5" fill="none" width="199" height="106"/>
<text transform="matrix(1 0 0 1 711.3613 416.7295)" font-family="'MyriadPro-Regular'" font-size="34">About Wes</text>
</svg>
